<svg width="159" height="66" viewBox="0 0 159 66" fill="none" xmlns="http://www.w3.org/2000/svg">
<g filter="url(#filter0_d_22_12)">
<mask id="path-1-inside-1_22_12" fill="white">
<path fill-rule="evenodd" clip-rule="evenodd" d="M89.8903 44.1856C92.5501 62.085 95.1799 62.0339 101.722 61.9067C102.203 61.8973 102.705 61.8875 103.23 61.8845C111.907 61.8336 114.795 55.3558 111.705 34.3564C108.933 15.5163 101.283 3.57767 92.7717 4.01143C87.4704 4.28159 85.5356 9.86499 85.8732 18.108C85.2264 18.2497 84.5503 18.4239 83.8446 18.6299C83.2555 18.5101 82.6921 18.4068 82.1533 18.3199C82.6848 9.86481 80.8399 5.16687 76.5586 4.1973C70.057 2.72492 65.1215 9.99055 55.2756 32.2176C45.5332 54.2109 54.7181 62.0706 60.3356 61.9536C61.36 61.9846 62.2957 62.0569 63.1593 62.1237L63.1594 62.1238C69.5221 62.616 71.9646 62.8049 77.0514 43.8708C78.7495 45.6135 80.9406 46.7728 83.8446 46.7728C86.6638 46.7728 88.5272 45.781 89.8903 44.1856Z"/>
</mask>
<path fill-rule="evenodd" clip-rule="evenodd" d="M89.8903 44.1856C92.5501 62.085 95.1799 62.0339 101.722 61.9067C102.203 61.8973 102.705 61.8875 103.23 61.8845C111.907 61.8336 114.795 55.3558 111.705 34.3564C108.933 15.5163 101.283 3.57767 92.7717 4.01143C87.4704 4.28159 85.5356 9.86499 85.8732 18.108C85.2264 18.2497 84.5503 18.4239 83.8446 18.6299C83.2555 18.5101 82.6921 18.4068 82.1533 18.3199C82.6848 9.86481 80.8399 5.16687 76.5586 4.1973C70.057 2.72492 65.1215 9.99055 55.2756 32.2176C45.5332 54.2109 54.7181 62.0706 60.3356 61.9536C61.36 61.9846 62.2957 62.0569 63.1593 62.1237L63.1594 62.1238C69.5221 62.616 71.9646 62.8049 77.0514 43.8708C78.7495 45.6135 80.9406 46.7728 83.8446 46.7728C86.6638 46.7728 88.5272 45.781 89.8903 44.1856Z" fill="#D9D9D9"/>
<path d="M101.722 61.9067L101.729 62.2566L101.729 62.2566L101.722 61.9067ZM89.8903 44.1856L90.2365 44.1341L90.1236 43.3738L89.6243 43.9582L89.8903 44.1856ZM103.23 61.8845L103.232 62.2345L103.232 62.2345L103.23 61.8845ZM111.705 34.3564L111.359 34.4073L111.359 34.4073L111.705 34.3564ZM92.7717 4.01143L92.7895 4.36098L92.7717 4.01143ZM85.8732 18.108L85.9481 18.4499L86.2349 18.3871L86.2229 18.0937L85.8732 18.108ZM83.8446 18.6299L83.7748 18.9729L83.8596 18.9901L83.9427 18.9659L83.8446 18.6299ZM82.1533 18.3199L81.804 18.2979L81.7841 18.6149L82.0976 18.6654L82.1533 18.3199ZM76.5586 4.1973L76.6359 3.85594L76.6359 3.85594L76.5586 4.1973ZM55.2756 32.2176L55.5956 32.3593L55.2756 32.2176ZM60.3356 61.9536L60.3462 61.6038L60.3373 61.6035L60.3283 61.6037L60.3356 61.9536ZM63.1593 62.1237L63.1969 61.7756L63.1863 61.7748L63.1593 62.1237ZM63.1594 62.1238L63.1218 62.4719L63.1324 62.4727L63.1594 62.1238ZM77.0514 43.8708L77.302 43.6265L76.8729 43.1861L76.7133 43.7799L77.0514 43.8708ZM101.715 61.5567C98.4103 61.621 96.305 61.6418 94.6212 59.5844C93.7612 58.5337 92.995 56.9187 92.2775 54.4269C91.561 51.9385 90.9006 48.6032 90.2365 44.1341L89.5442 44.237C90.2099 48.7176 90.8757 52.0882 91.6048 54.6206C92.3329 57.1494 93.1317 58.8698 94.0795 60.0278C96.0111 62.388 98.4918 62.3195 101.729 62.2566L101.715 61.5567ZM103.228 61.5345C102.7 61.5376 102.196 61.5474 101.715 61.5567L101.729 62.2566C102.21 62.2472 102.71 62.2375 103.232 62.2345L103.228 61.5345ZM111.359 34.4073C112.904 44.9074 112.939 51.7014 111.548 55.8652C110.857 57.9331 109.821 59.3314 108.458 60.2218C107.09 61.1153 105.356 61.522 103.228 61.5345L103.232 62.2345C105.442 62.2215 107.323 61.7994 108.841 60.8078C110.363 59.8131 111.483 58.2699 112.212 56.087C113.661 51.7494 113.596 44.8047 112.051 34.3054L111.359 34.4073ZM92.7895 4.36098C96.8585 4.15362 100.799 6.90094 104.095 12.1425C107.383 17.3737 109.977 25.0173 111.359 34.4073L112.051 34.3054C110.661 24.8553 108.044 17.1096 104.687 11.7699C101.337 6.44061 97.1966 3.43549 92.7539 3.66189L92.7895 4.36098ZM86.2229 18.0937C86.0549 13.9924 86.4559 10.6 87.5272 8.21323C88.0608 7.02424 88.7559 6.09588 89.6197 5.44896C90.4809 4.80392 91.5276 4.42529 92.7895 4.36098L92.7539 3.66189C91.3651 3.73266 90.182 4.15326 89.2 4.88868C88.2206 5.62223 87.459 6.65557 86.8885 7.92658C85.7515 10.4598 85.3539 13.9807 85.5235 18.1224L86.2229 18.0937ZM83.9427 18.9659C84.6416 18.7618 85.31 18.5897 85.9481 18.4499L85.7984 17.7661C85.1428 17.9097 84.4589 18.0859 83.7465 18.2939L83.9427 18.9659ZM82.0976 18.6654C82.6312 18.7515 83.1899 18.8539 83.7748 18.9729L83.9144 18.2869C83.3211 18.1663 82.753 18.0621 82.2091 17.9744L82.0976 18.6654ZM82.5026 18.3419C82.7697 14.0935 82.4438 10.7453 81.4862 8.32286C80.5213 5.88191 78.908 4.37051 76.6359 3.85594L76.4812 4.53866C78.4904 4.99366 79.9402 6.31602 80.8353 8.58019C81.7376 10.8629 82.0685 14.0912 81.804 18.2979L82.5026 18.3419ZM76.6359 3.85594C74.9308 3.46981 73.3168 3.65771 71.7093 4.52022C70.1144 5.37602 68.5437 6.88616 66.8903 9.11142C63.5863 13.5581 59.8768 20.9664 54.9556 32.0758L55.5956 32.3593C60.5204 21.2418 64.2015 13.9037 67.4521 9.5289C69.076 7.34342 70.5736 5.92404 72.0403 5.13704C73.4945 4.35676 74.9355 4.1886 76.4812 4.53866L76.6359 3.85594ZM54.9556 32.0758C50.0656 43.115 49.8919 50.6806 51.7184 55.501C53.5466 60.3262 57.3729 62.3654 60.3429 62.3036L60.3283 61.6037C57.6809 61.6588 54.1059 59.8266 52.373 55.2529C50.6382 50.6744 50.7433 43.3135 55.5956 32.3593L54.9556 32.0758ZM60.3251 62.3035C61.3401 62.3341 62.2681 62.4059 63.1323 62.4727L63.1863 61.7748C62.3234 61.708 61.3799 61.635 60.3462 61.6038L60.3251 62.3035ZM63.1217 62.4717L63.1218 62.4717L63.197 61.7758L63.1969 61.7758L63.1217 62.4717ZM63.1324 62.4727C64.7104 62.5948 66.1036 62.7048 67.3588 62.4868C68.6378 62.2648 69.7693 61.7048 70.8434 60.5169C71.9058 59.3421 72.9053 57.5607 73.9549 54.9087C75.0059 52.2531 76.1164 48.6998 77.3894 43.9616L76.7133 43.7799C75.4429 48.5088 74.3405 52.0322 73.3041 54.6511C72.2662 57.2735 71.3037 58.9642 70.3242 60.0474C69.3565 61.1176 68.3665 61.6014 67.2391 61.7972C66.0878 61.9971 64.7898 61.8988 63.1864 61.7748L63.1324 62.4727ZM83.8446 46.4228C81.0475 46.4228 78.9435 45.3111 77.302 43.6265L76.8007 44.115C78.5555 45.9159 80.8338 47.1228 83.8446 47.1228V46.4228ZM89.6243 43.9582C88.3299 45.4731 86.565 46.4228 83.8446 46.4228V47.1228C86.7625 47.1228 88.7245 46.0889 90.1564 44.4129L89.6243 43.9582Z" fill="#A6A6A6" mask="url(#path-1-inside-1_22_12)"/>
</g>
<g filter="url(#filter1_d_22_12)">
<mask id="path-3-inside-2_22_12" fill="white">
<path fill-rule="evenodd" clip-rule="evenodd" d="M39.8903 47.1856C42.55 65.085 45.1799 65.0339 51.7222 64.9067H51.7224C52.2032 64.8973 52.7051 64.8875 53.2298 64.8845C61.9072 64.8336 64.7945 58.3558 61.705 37.3564C58.9332 18.5163 51.2833 6.57767 42.7716 7.01143C37.4703 7.28159 35.5355 12.865 35.8731 21.1081C35.2263 21.2497 34.5502 21.4239 33.8446 21.6299C33.2555 21.5101 32.6921 21.4068 32.1533 21.3199C32.6848 12.8648 30.8399 8.16686 26.5586 7.19729C20.057 5.72491 15.1215 12.9905 5.27563 35.2176C-4.46676 57.2109 4.71813 65.0706 10.3356 64.9536C11.36 64.9845 12.2957 65.0569 13.1593 65.1237L13.1594 65.1237C19.5221 65.616 21.9646 65.8049 27.0514 46.8707C28.7495 48.6135 30.9406 49.7728 33.8446 49.7728C36.6637 49.7728 38.5271 48.781 39.8903 47.1856Z"/>
</mask>
<path fill-rule="evenodd" clip-rule="evenodd" d="M39.8903 47.1856C42.55 65.085 45.1799 65.0339 51.7222 64.9067H51.7224C52.2032 64.8973 52.7051 64.8875 53.2298 64.8845C61.9072 64.8336 64.7945 58.3558 61.705 37.3564C58.9332 18.5163 51.2833 6.57767 42.7716 7.01143C37.4703 7.28159 35.5355 12.865 35.8731 21.1081C35.2263 21.2497 34.5502 21.4239 33.8446 21.6299C33.2555 21.5101 32.6921 21.4068 32.1533 21.3199C32.6848 12.8648 30.8399 8.16686 26.5586 7.19729C20.057 5.72491 15.1215 12.9905 5.27563 35.2176C-4.46676 57.2109 4.71813 65.0706 10.3356 64.9536C11.36 64.9845 12.2957 65.0569 13.1593 65.1237L13.1594 65.1237C19.5221 65.616 21.9646 65.8049 27.0514 46.8707C28.7495 48.6135 30.9406 49.7728 33.8446 49.7728C36.6637 49.7728 38.5271 48.781 39.8903 47.1856Z" fill="#D9D9D9"/>
<path d="M51.7222 64.9067V64.5566L51.7154 64.5567L51.7222 64.9067ZM39.8903 47.1856L40.2365 47.1342L40.1235 46.3739L39.6242 46.9583L39.8903 47.1856ZM51.7224 64.9067L51.7224 65.2567L51.7292 65.2566L51.7224 64.9067ZM53.2298 64.8845L53.2277 64.5345L53.2277 64.5345L53.2298 64.8845ZM61.705 37.3564L61.3587 37.4073L61.3587 37.4073L61.705 37.3564ZM42.7716 7.01143L42.7894 7.36098L42.7716 7.01143ZM35.8731 21.1081L35.948 21.45L36.2349 21.3871L36.2229 21.0937L35.8731 21.1081ZM33.8446 21.6299L33.7748 21.9729L33.8596 21.9901L33.9427 21.9659L33.8446 21.6299ZM32.1533 21.3199L31.804 21.2979L31.7841 21.6148L32.0976 21.6654L32.1533 21.3199ZM26.5586 7.19729L26.6359 6.85593L26.6359 6.85593L26.5586 7.19729ZM5.27563 35.2176L4.95562 35.0758L4.95562 35.0758L5.27563 35.2176ZM10.3356 64.9536L10.3462 64.6038L10.3373 64.6035L10.3283 64.6037L10.3356 64.9536ZM13.1593 65.1237L13.1969 64.7756L13.1863 64.7748L13.1593 65.1237ZM13.1594 65.1237L13.1218 65.4719L13.1324 65.4727L13.1594 65.1237ZM27.0514 46.8707L27.302 46.6265L26.8729 46.1861L26.7133 46.7799L27.0514 46.8707ZM51.7154 64.5567C48.4103 64.621 46.3049 64.6418 44.6211 62.5845C43.7612 61.5337 42.9949 59.9188 42.2774 57.4269C41.5609 54.9385 40.9006 51.6033 40.2365 47.1342L39.5441 47.2371C40.2099 51.7177 40.8756 55.0883 41.6047 57.6206C42.3328 60.1494 43.1316 61.8698 44.0794 63.0278C46.0111 65.388 48.4918 65.3195 51.729 65.2566L51.7154 64.5567ZM51.7224 64.5567H51.7222V65.2567H51.7224V64.5567ZM53.2277 64.5345C52.7003 64.5376 52.1961 64.5474 51.7156 64.5567L51.7292 65.2566C52.2103 65.2472 52.7099 65.2375 53.2318 65.2345L53.2277 64.5345ZM61.3587 37.4073C62.9035 47.9074 62.9393 54.7014 61.548 58.8652C60.857 60.9331 59.8206 62.3314 58.4578 63.2218C57.0902 64.1153 55.3563 64.522 53.2277 64.5345L53.2318 65.2345C55.4419 65.2215 57.323 64.7994 58.8407 63.8078C60.3632 62.8131 61.4826 61.2699 62.2119 59.087C63.6613 54.7494 63.5959 47.8047 62.0513 37.3054L61.3587 37.4073ZM42.7894 7.36098C46.8584 7.15362 50.7992 9.90094 54.0945 15.1425C57.3833 20.3737 59.9773 28.0173 61.3587 37.4073L62.0513 37.3054C60.6609 27.8553 58.0441 20.1096 54.6871 14.7699C51.3366 9.44061 47.1965 6.43549 42.7538 6.66189L42.7894 7.36098ZM36.2229 21.0937C36.0549 16.9924 36.4558 13.6 37.5271 11.2132C38.0608 10.0242 38.7558 9.09588 39.6196 8.44897C40.4808 7.80392 41.5275 7.42529 42.7894 7.36098L42.7538 6.66189C41.365 6.73266 40.1819 7.15326 39.2 7.88868C38.2205 8.62224 37.459 9.65557 36.8885 10.9266C35.7514 13.4598 35.3538 16.9807 35.5234 21.1224L36.2229 21.0937ZM33.9427 21.9659C34.6416 21.7618 35.3099 21.5897 35.948 21.45L35.7983 20.7662C35.1427 20.9097 34.4589 21.0859 33.7465 21.2939L33.9427 21.9659ZM32.0976 21.6654C32.6312 21.7515 33.1899 21.8539 33.7748 21.9729L33.9144 21.2869C33.3211 21.1662 32.753 21.0621 32.2091 20.9744L32.0976 21.6654ZM32.5026 21.3418C32.7697 17.0935 32.4438 13.7453 31.4862 11.3229C30.5213 8.8819 28.908 7.3705 26.6359 6.85593L26.4812 7.53864C28.4904 7.99365 29.9402 9.316 30.8353 11.5802C31.7376 13.8629 32.0685 17.0912 31.804 21.2979L32.5026 21.3418ZM26.6359 6.85593C24.9308 6.4698 23.3168 6.6577 21.7093 7.52021C20.1144 8.37601 18.5437 9.88615 16.8903 12.1114C13.5863 16.5581 9.87678 23.9664 4.95562 35.0758L5.59564 35.3593C10.5204 24.2417 14.2015 16.9037 17.4521 12.5289C19.076 10.3434 20.5736 8.92403 22.0403 8.13703C23.4945 7.35675 24.9355 7.18859 26.4812 7.53864L26.6359 6.85593ZM4.95562 35.0758C0.0655888 46.115 -0.108058 53.6806 1.71838 58.501C3.54665 63.3262 7.37289 65.3654 10.3429 65.3035L10.3283 64.6037C7.68086 64.6588 4.10592 62.8266 2.37297 58.2529C0.638181 53.6744 0.743283 46.3135 5.59564 35.3593L4.95562 35.0758ZM10.3251 65.3035C11.3401 65.3341 12.2681 65.4058 13.1323 65.4727L13.1863 64.7748C12.3234 64.708 11.3799 64.635 10.3462 64.6038L10.3251 65.3035ZM13.1217 65.4717L13.1218 65.4717L13.197 64.7758L13.1969 64.7758L13.1217 65.4717ZM13.1324 65.4727C14.7104 65.5948 16.1036 65.7048 17.3588 65.4868C18.6378 65.2648 19.7693 64.7048 20.8434 63.5169C21.9058 62.3421 22.9053 60.5607 23.9549 57.9087C25.0059 55.2531 26.1164 51.6998 27.3894 46.9616L26.7133 46.7799C25.4429 51.5088 24.3405 55.0322 23.3041 57.6511C22.2662 60.2735 21.3037 61.9642 20.3242 63.0474C19.3565 64.1176 18.3665 64.6014 17.2391 64.7972C16.0878 64.997 14.7898 64.8988 13.1864 64.7748L13.1324 65.4727ZM33.8446 49.4228C31.0475 49.4228 28.9435 48.3111 27.302 46.6265L26.8007 47.115C28.5555 48.9159 30.8338 50.1228 33.8446 50.1228V49.4228ZM39.6242 46.9583C38.3298 48.4731 36.5649 49.4228 33.8446 49.4228V50.1228C36.7625 50.1228 38.7244 49.0889 40.1564 47.413L39.6242 46.9583Z" fill="#A6A6A6" mask="url(#path-3-inside-2_22_12)"/>
</g>
<g filter="url(#filter2_d_22_12)">
<mask id="path-5-inside-3_22_12" fill="white">
<path fill-rule="evenodd" clip-rule="evenodd" d="M146.964 37.1561C145.989 36.4858 145.001 35.8476 144.006 35.2435C150.445 32.8015 154.595 28.3431 155.148 24.1167C155.499 21.4403 155.462 19.5035 155.126 18.1687C154.351 12.2722 145.297 5.65131 131.16 5.65131C128.188 5.65131 125.298 5.82275 122.574 6.14229C121.192 2.79553 119.119 0.902703 115.875 1.03497C110.28 0.590374 107.896 4.41828 107.043 10.6137C104.301 12.264 102.789 14.2319 103.024 16.369C103.595 21.5733 104.908 23.9412 106.831 24.6321C106.935 26.7993 107.071 29.044 107.21 31.3337C107.394 34.3621 107.452 37.3332 107.508 40.1581C107.76 52.9833 107.953 62.7962 119.529 61.2844C125.442 61.0433 126.654 54.1667 126.496 44.2216C129.695 45.0121 132.984 46.133 135.804 48.0722C140.788 51.4985 142.898 55.103 144.469 57.7865C146.652 61.5152 147.794 63.4659 154.157 60.6899C160.936 57.7326 158.872 45.3432 146.964 37.1561ZM129.553 31C136.835 31 145 29.6049 145 21.4891C145 15.6306 140.69 14.4949 134.098 13.5914C123.195 12.0973 123 13.0634 123 20.8359C123 28.6084 123.254 30.1084 129.553 31Z"/>
</mask>
<path fill-rule="evenodd" clip-rule="evenodd" d="M146.964 37.1561C145.989 36.4858 145.001 35.8476 144.006 35.2435C150.445 32.8015 154.595 28.3431 155.148 24.1167C155.499 21.4403 155.462 19.5035 155.126 18.1687C154.351 12.2722 145.297 5.65131 131.16 5.65131C128.188 5.65131 125.298 5.82275 122.574 6.14229C121.192 2.79553 119.119 0.902703 115.875 1.03497C110.28 0.590374 107.896 4.41828 107.043 10.6137C104.301 12.264 102.789 14.2319 103.024 16.369C103.595 21.5733 104.908 23.9412 106.831 24.6321C106.935 26.7993 107.071 29.044 107.21 31.3337C107.394 34.3621 107.452 37.3332 107.508 40.1581C107.76 52.9833 107.953 62.7962 119.529 61.2844C125.442 61.0433 126.654 54.1667 126.496 44.2216C129.695 45.0121 132.984 46.133 135.804 48.0722C140.788 51.4985 142.898 55.103 144.469 57.7865C146.652 61.5152 147.794 63.4659 154.157 60.6899C160.936 57.7326 158.872 45.3432 146.964 37.1561ZM129.553 31C136.835 31 145 29.6049 145 21.4891C145 15.6306 140.69 14.4949 134.098 13.5914C123.195 12.0973 123 13.0634 123 20.8359C123 28.6084 123.254 30.1084 129.553 31Z" fill="#D9D9D9"/>
<path d="M144.006 35.2435L143.882 34.9158L143.211 35.1703L143.824 35.543L144.006 35.2435ZM146.964 37.1561L147.162 36.8673L147.162 36.8673L146.964 37.1561ZM155.148 24.1167L154.801 24.0713L154.801 24.0713L155.148 24.1167ZM155.126 18.1687L154.779 18.2144L154.782 18.2345L154.787 18.2541L155.126 18.1687ZM122.574 6.14229L122.25 6.27602L122.351 6.52125L122.614 6.49035L122.574 6.14229ZM115.875 1.03497L115.848 1.38432L115.869 1.38598L115.89 1.38513L115.875 1.03497ZM107.043 10.6137L107.224 10.9139L107.367 10.8275L107.39 10.6615L107.043 10.6137ZM103.024 16.369L102.675 16.4072L103.024 16.369ZM106.831 24.6321L107.181 24.6152L107.169 24.3814L106.949 24.3023L106.831 24.6321ZM107.21 31.3337L107.56 31.3125L107.56 31.3125L107.21 31.3337ZM107.508 40.1581L107.158 40.165L107.508 40.1581ZM119.529 61.2844L119.514 60.9343L119.499 60.9349L119.483 60.9369L119.529 61.2844ZM126.496 44.2216L126.58 43.8814L126.139 43.7722L126.146 44.2271L126.496 44.2216ZM135.804 48.0722L136.003 47.7834L136.003 47.7834L135.804 48.0722ZM144.469 57.7865L144.772 57.6095L144.772 57.6095L144.469 57.7865ZM154.157 60.6899L154.297 61.0111L154.297 61.0111L154.157 60.6899ZM129.553 31L129.504 31.347L129.529 31.3504H129.553V31ZM134.098 13.5914L134.05 13.9386L134.098 13.5914ZM123 20.8359L122.65 20.8359L123 20.8359ZM143.824 35.543C144.813 36.1437 145.796 36.7783 146.765 37.4449L147.162 36.8673C146.182 36.1932 145.188 35.5515 144.188 34.944L143.824 35.543ZM154.801 24.0713C154.271 28.1173 150.259 32.4972 143.882 34.9158L144.131 35.5711C150.631 33.1058 154.919 28.569 155.496 24.1622L154.801 24.0713ZM154.787 18.2541C155.106 19.5259 155.149 21.4115 154.801 24.0713L155.496 24.1622C155.848 21.469 155.818 19.4811 155.466 18.0833L154.787 18.2541ZM131.16 6.00175C138.176 6.00175 143.911 7.64476 147.978 10.002C152.058 12.3667 154.411 15.418 154.779 18.2144L155.474 18.123C155.066 15.0229 152.505 11.8154 148.33 9.3956C144.142 6.96827 138.282 5.30086 131.16 5.30086V6.00175ZM122.614 6.49035C125.325 6.17244 128.201 6.00175 131.16 6.00175V5.30086C128.174 5.30086 125.271 5.47307 122.533 5.79423L122.614 6.49035ZM115.89 1.38513C117.433 1.32218 118.678 1.73917 119.704 2.5579C120.738 3.38297 121.572 4.63458 122.25 6.27602L122.898 6.00856C122.194 4.30324 121.3 2.93505 120.141 2.01009C118.974 1.07879 117.561 0.615495 115.861 0.684818L115.89 1.38513ZM107.39 10.6615C107.814 7.58635 108.611 5.15942 109.95 3.5592C111.269 1.98247 113.147 1.16969 115.848 1.38432L115.903 0.685628C113.009 0.455654 110.897 1.33453 109.412 3.10946C107.947 4.8609 107.126 7.44562 106.696 10.5659L107.39 10.6615ZM103.372 16.3308C103.161 14.407 104.513 12.5457 107.224 10.9139L106.862 10.3134C104.09 11.9824 102.418 14.0567 102.675 16.4072L103.372 16.3308ZM106.949 24.3023C106.096 23.9959 105.348 23.311 104.736 22.041C104.121 20.7636 103.656 18.9154 103.372 16.3308L102.675 16.4072C102.963 19.0269 103.44 20.9649 104.105 22.3452C104.773 23.733 105.642 24.5774 106.712 24.9619L106.949 24.3023ZM107.56 31.3125C107.421 29.0224 107.285 26.7799 107.181 24.6152L106.481 24.649C106.585 26.8187 106.722 29.0656 106.86 31.355L107.56 31.3125ZM107.858 40.1513C107.803 37.3273 107.744 34.3492 107.56 31.3125L106.86 31.355C107.044 34.3751 107.102 37.3391 107.158 40.165L107.858 40.1513ZM119.483 60.9369C116.635 61.3089 114.535 60.9779 112.972 60.1177C111.413 59.2599 110.341 57.8501 109.598 55.969C108.853 54.082 108.447 51.7398 108.214 49.052C107.981 46.3661 107.921 43.3606 107.858 40.1513L107.158 40.165C107.221 43.3683 107.28 46.3988 107.516 49.1127C107.751 51.8247 108.164 54.2459 108.946 56.2263C109.73 58.2126 110.893 59.7741 112.634 60.7318C114.37 61.6872 116.635 62.0158 119.574 61.6319L119.483 60.9369ZM126.146 44.2271C126.225 49.1972 125.959 53.3488 124.958 56.2787C124.459 57.7389 123.785 58.8717 122.902 59.6527C122.025 60.4284 120.92 60.877 119.514 60.9343L119.543 61.6346C121.094 61.5713 122.358 61.0699 123.367 60.1776C124.369 59.2906 125.097 58.0375 125.621 56.5053C126.665 53.4503 126.926 49.1911 126.847 44.216L126.146 44.2271ZM136.003 47.7834C133.132 45.8094 129.796 44.6761 126.58 43.8814L126.412 44.5618C129.594 45.3481 132.836 46.4565 135.606 48.361L136.003 47.7834ZM144.772 57.6095C143.194 54.9143 141.052 51.2547 136.003 47.7834L135.606 48.361C140.524 51.7423 142.603 55.2916 144.167 57.9636L144.772 57.6095ZM154.017 60.3687C150.845 61.7524 149.096 61.8984 147.889 61.3577C147.284 61.0864 146.78 60.6273 146.286 59.9892C145.79 59.3469 145.321 58.5474 144.772 57.6095L144.167 57.9636C144.709 58.89 145.202 59.7326 145.732 60.418C146.265 61.1076 146.854 61.6618 147.602 61.9973C149.103 62.67 151.106 62.4034 154.297 61.0111L154.017 60.3687ZM146.765 37.4449C152.663 41.4997 156.096 46.5776 157.229 50.9716C158.364 55.3777 157.182 58.9881 154.017 60.3687L154.297 61.0111C157.911 59.4344 159.086 55.3715 157.907 50.7967C156.725 46.21 153.173 40.9996 147.162 36.8673L146.765 37.4449ZM144.65 21.4891C144.65 23.4564 144.156 24.9936 143.322 26.1998C142.487 27.4084 141.294 28.3077 139.86 28.9698C136.981 30.2996 133.184 30.6496 129.553 30.6496V31.3504C133.204 31.3504 137.13 31.0029 140.154 29.6061C141.672 28.9051 142.976 27.9339 143.899 26.5983C144.824 25.2603 145.35 23.5798 145.35 21.4891H144.65ZM134.05 13.9386C137.356 14.3917 140.011 14.896 141.842 15.9834C142.747 16.521 143.443 17.1969 143.915 18.0764C144.388 18.958 144.65 20.0673 144.65 21.4891H145.35C145.35 19.9817 145.073 18.752 144.532 17.7448C143.99 16.7354 143.196 15.9724 142.2 15.3808C140.228 14.2098 137.431 13.6946 134.145 13.2442L134.05 13.9386ZM123.35 20.8359C123.35 18.884 123.364 17.3975 123.547 16.2711C123.729 15.1513 124.069 14.4568 124.666 14.0221C125.28 13.5762 126.232 13.3523 127.764 13.3505C129.289 13.3486 131.324 13.565 134.05 13.9386L134.145 13.2442C131.42 12.8707 129.342 12.6476 127.764 12.6496C126.193 12.6515 125.053 12.8748 124.254 13.4552C123.44 14.0469 123.05 14.9579 122.855 16.1586C122.661 17.3526 122.65 18.9016 122.65 20.8359L123.35 20.8359ZM129.602 30.653C126.443 30.2059 124.974 29.6194 124.217 28.3217C123.829 27.6572 123.607 26.7725 123.487 25.5435C123.367 24.3159 123.35 22.7819 123.35 20.8359L122.65 20.8359C122.65 22.7762 122.665 24.3444 122.789 25.6119C122.913 26.8781 123.148 27.8814 123.612 28.6749C124.556 30.2932 126.364 30.9025 129.504 31.347L129.602 30.653Z" fill="#A6A6A6" mask="url(#path-5-inside-3_22_12)"/>
</g>
<defs>
<filter id="filter0_d_22_12" x="50.8673" y="3.86725" width="62.4371" height="58.7924" filterUnits="userSpaceOnUse" color-interpolation-filters="sRGB">
<feFlood flood-opacity="0" result="BackgroundImageFix"/>
<feColorMatrix in="SourceAlpha" type="matrix" values="0 0 0 0 0 0 0 0 0 0 0 0 0 0 0 0 0 0 127 0" result="hardAlpha"/>
<feOffset dx="0.13275" dy="0.13275"/>
<feGaussianBlur stdDeviation="0.13275"/>
<feComposite in2="hardAlpha" operator="out"/>
<feColorMatrix type="matrix" values="0 0 0 0 0 0 0 0 0 0 0 0 0 0 0 0 0 0 0.25 0"/>
<feBlend mode="normal" in2="BackgroundImageFix" result="effect1_dropShadow_22_12"/>
<feBlend mode="normal" in="SourceGraphic" in2="effect1_dropShadow_22_12" result="shape"/>
</filter>
<filter id="filter1_d_22_12" x="0.86725" y="6.86725" width="62.437" height="58.7924" filterUnits="userSpaceOnUse" color-interpolation-filters="sRGB">
<feFlood flood-opacity="0" result="BackgroundImageFix"/>
<feColorMatrix in="SourceAlpha" type="matrix" values="0 0 0 0 0 0 0 0 0 0 0 0 0 0 0 0 0 0 127 0" result="hardAlpha"/>
<feOffset dx="0.13275" dy="0.13275"/>
<feGaussianBlur stdDeviation="0.13275"/>
<feComposite in2="hardAlpha" operator="out"/>
<feColorMatrix type="matrix" values="0 0 0 0 0 0 0 0 0 0 0 0 0 0 0 0 0 0 0.25 0"/>
<feBlend mode="normal" in2="BackgroundImageFix" result="effect1_dropShadow_22_12"/>
<feBlend mode="normal" in="SourceGraphic" in2="effect1_dropShadow_22_12" result="shape"/>
</filter>
<filter id="filter2_d_22_12" x="102.86" y="0.86" width="55.54" height="61.54" filterUnits="userSpaceOnUse" color-interpolation-filters="sRGB">
<feFlood flood-opacity="0" result="BackgroundImageFix"/>
<feColorMatrix in="SourceAlpha" type="matrix" values="0 0 0 0 0 0 0 0 0 0 0 0 0 0 0 0 0 0 127 0" result="hardAlpha"/>
<feOffset dx="0.13" dy="0.13"/>
<feGaussianBlur stdDeviation="0.135"/>
<feComposite in2="hardAlpha" operator="out"/>
<feColorMatrix type="matrix" values="0 0 0 0 0 0 0 0 0 0 0 0 0 0 0 0 0 0 0.25 0"/>
<feBlend mode="normal" in2="BackgroundImageFix" result="effect1_dropShadow_22_12"/>
<feBlend mode="normal" in="SourceGraphic" in2="effect1_dropShadow_22_12" result="shape"/>
</filter>
</defs>
</svg>
